<?xml version="1.0" encoding="UTF-8"?>
<!DOCTYPE svg PUBLIC "-//W3C//DTD SVG 1.1//EN" "http://www.w3.org/Graphics/SVG/1.1/DTD/svg11.dtd">
<!-- Creator: CorelDRAW 2017 -->
<svg xmlns="http://www.w3.org/2000/svg" xml:space="preserve" width="67.7332mm" height="50.8mm" version="1.1" style="shape-rendering:geometricPrecision; text-rendering:geometricPrecision; image-rendering:optimizeQuality; fill-rule:evenodd; clip-rule:evenodd"
viewBox="0 0 6773.32 5080"
 xmlns:xlink="http://www.w3.org/1999/xlink">
 <defs>
  <style type="text/css">
   <![CDATA[
    .fil0 {fill:white}
   ]]>
  </style>
 </defs>
 <g id="Capa_x0020_1">
  <metadata id="CorelCorpID_0Corel-Layer"/>
  <path class="fil0" d="M1596.98 1234.4c-34.95,0 -73.4,-3.78 -115.35,-11.36 -41.95,-7.57 -82.73,-19.51 -122.34,-35.83 -39.62,-16.31 -74.87,-37.57 -105.74,-63.79 -30.88,-26.22 -52.73,-57.97 -65.55,-95.25 -16.31,9.32 -43.4,24.76 -81.27,46.31 -37.87,21.56 -76.9,44.86 -117.1,69.91 -40.2,25.05 -76.03,49.81 -107.49,74.28 -31.46,24.47 -48.93,44.28 -52.43,59.43 19.81,43.11 50.1,78.36 90.89,105.74 40.78,27.38 87.97,49.81 141.56,67.29 53.6,17.47 111.57,31.46 173.91,41.94 62.34,10.49 124.67,20.39 187.01,29.71 62.34,9.33 122.05,19.81 179.15,31.46 57.09,11.66 107.78,27.1 152.05,46.32 44.28,19.23 79.53,43.69 105.74,73.41 26.22,29.71 39.33,67.87 39.33,114.48 0,67.58 -23.89,134.28 -71.66,200.12 -47.77,65.83 -109.53,128.17 -185.27,187.01 -75.73,58.84 -161.08,113.31 -256.04,163.41 -94.97,50.11 -189.93,93.22 -284.89,129.34 -94.96,36.12 -185.26,64.37 -270.9,84.77 -85.65,20.39 -157.01,30.58 -214.11,30.58 -31.46,0 -71.07,-6.41 -118.84,-19.22 -47.78,-12.82 -96.13,-30.01 -145.07,-51.56 -48.94,-21.56 -94.67,-47.48 -137.2,-77.78 -42.53,-30.29 -74.28,-62.92 -95.25,-97.87 -19.81,-32.63 -28.26,-57.68 -25.35,-75.16 2.92,-17.48 20.1,-36.12 51.56,-55.93 30.3,-18.64 70.5,-39.9 120.6,-63.79 50.1,-23.89 102.24,-46.9 156.43,-69.04 54.18,-22.14 106.9,-42.24 158.17,-60.3 51.27,-18.06 93.21,-31.75 125.84,-41.07 25.63,-6.99 41.65,-9.03 48.06,-6.12 6.41,2.92 -1.46,16.61 -23.59,41.08 -16.32,18.64 -36.42,39.03 -60.3,61.17 -23.89,22.14 -43.4,45.44 -58.55,69.91 -15.15,23.3 -19.52,44.28 -13.11,62.92 6.41,18.64 18.64,34.66 36.7,48.06 18.06,13.4 40.78,24.76 68.17,34.08 27.38,9.33 55.34,16.61 83.89,21.85 28.55,5.25 55.35,9.03 80.4,11.36 25.05,2.33 44.56,3.5 58.55,3.5 40.78,0 87.68,-3.5 140.69,-10.49 53.02,-6.99 103.41,-20.1 151.18,-39.32 47.78,-19.23 87.98,-45.45 120.6,-78.65 32.63,-33.21 48.94,-76.61 48.94,-130.21 0,-55.93 -14.86,-101.08 -44.57,-135.45 -29.71,-34.38 -69.04,-62.05 -117.97,-83.02 -48.94,-20.98 -104.87,-36.71 -167.79,-47.19 -62.92,-10.49 -126.71,-20.1 -191.38,-28.84 -64.67,-8.74 -128.46,-18.35 -191.38,-28.84 -62.92,-10.49 -118.85,-26.22 -167.79,-47.19 -48.94,-20.97 -88.26,-49.23 -117.97,-84.77 -29.71,-35.53 -44.57,-81.85 -44.57,-138.94 0,-32.63 9.03,-63.51 27.09,-92.64 18.06,-29.13 41.36,-57.09 69.91,-83.89 28.55,-26.8 60.59,-52.14 96.13,-76.03 35.54,-23.88 71.37,-45.73 107.49,-65.54 36.12,-19.81 70.2,-38.16 102.24,-55.05 32.04,-16.9 59.13,-31.75 81.27,-44.57 65.25,-39.62 129.63,-79.23 193.13,-118.85 63.5,-39.62 115.64,-76.32 156.43,-110.11 17.47,-12.82 31.46,-22.72 41.94,-29.71 10.49,-6.99 20.98,-11.36 31.46,-13.11 10.49,-1.75 22.43,-1.16 35.83,1.75 13.4,2.91 31.17,7.28 53.31,13.11 27.96,6.99 55.93,16.31 83.89,27.96 27.97,11.65 56.22,22.72 84.77,33.21 28.54,10.49 57.97,19.52 88.26,27.09 30.3,7.57 61.17,11.36 92.63,11.36 19.81,0 38.16,-3.2 55.06,-9.61 16.89,-6.41 33.5,-13.98 49.81,-22.72 16.31,-8.74 32.33,-17.48 48.06,-26.22 15.73,-8.74 31.75,-16.02 48.07,-21.85 17.47,-5.82 30.58,-8.15 39.32,-6.99 8.74,1.17 14.86,4.95 18.35,11.36 3.5,6.41 5.25,14.86 5.25,25.34 0,10.49 -0.59,22.14 -1.75,34.96 -4.66,48.94 -16.02,94.96 -34.08,138.07 -18.06,43.12 -42.24,80.98 -72.54,113.61 -30.29,32.62 -66.41,58.55 -108.36,77.77 -41.94,19.23 -89.13,28.84 -141.57,28.84zm1536.29 1225.19c-68.74,-24.47 -133.12,-55.93 -193.12,-94.38 -60.01,-38.45 -115.07,-82.44 -165.17,-131.96 -50.1,-49.52 -94.38,-104.28 -132.83,-164.29 -38.45,-60 -69.91,-123.8 -94.38,-191.38l-305.86 0c-11.65,27.97 -26.8,63.8 -45.44,107.49 -18.64,43.69 -39.62,87.1 -62.92,130.21 -23.3,43.11 -49.23,81.56 -77.78,115.35 -28.54,33.79 -58.55,54.77 -90.01,62.92 -16.31,-2.33 -32.04,-4.08 -47.19,-5.24 -15.14,-1.17 -30.87,-1.75 -47.19,-1.75 -23.3,0 -46.02,2.33 -68.16,6.99 -22.14,4.66 -44.86,9.32 -68.16,13.98 -26.8,4.66 -39.33,4.37 -37.58,-0.87 1.75,-5.24 11.36,-17.77 28.84,-37.58 31.46,-33.79 64.08,-66.12 97.87,-97 33.79,-30.88 67.58,-62.04 101.37,-93.5 33.8,-31.46 66.42,-64.09 97.88,-97.88 31.46,-33.79 60.01,-69.91 85.64,-108.36 -11.65,0 -31.46,-2.04 -59.42,-6.12 -27.97,-4.08 -52.44,-10.78 -73.41,-20.1 -25.63,-11.65 -35.54,-20.1 -29.71,-25.34 5.82,-5.24 18.64,-10.2 38.45,-14.86 27.96,-5.82 58.84,-8.74 92.63,-8.74 33.79,0 62.34,0 85.64,0 12.82,-16.31 29.42,-44.56 49.81,-84.76 20.39,-40.2 40.2,-83.6 59.43,-130.21 19.22,-46.61 35.83,-91.18 49.81,-133.71 13.98,-42.52 20.97,-73.69 20.97,-93.5 0,-25.63 -10.48,-44.86 -31.46,-57.68 -20.97,-12.81 -43.11,-22.72 -66.41,-29.71 -23.31,-8.16 -30.59,-15.73 -21.85,-22.72 8.74,-6.99 21.85,-13.4 39.32,-19.23 51.27,-13.98 101.67,-12.81 151.19,3.5 49.52,16.31 92.34,43.11 128.46,80.4 27.96,30.29 51.56,65.25 70.78,104.86 19.23,39.62 36.71,80.98 52.44,124.09 15.73,43.12 30.87,86.23 45.44,129.34 14.56,43.11 31.17,82.73 49.81,118.85 40.78,2.33 81.27,2.33 121.47,0 40.2,-2.33 80.69,-4.66 121.47,-6.99 37.28,-2.33 63.21,-0.59 77.77,5.24 14.57,5.83 20.69,13.69 18.36,23.6 -2.33,9.9 -11.66,20.39 -27.97,31.46 -16.31,11.06 -35.54,20.68 -57.67,28.83 -32.63,11.66 -66.13,16.02 -100.5,13.11 -34.37,-2.91 -73.12,-4.37 -116.23,-4.37 19.81,64.09 44.86,119.14 75.16,165.17 30.29,46.02 62.92,88.84 97.87,128.46 34.96,39.61 70.2,78.65 105.74,117.1 35.54,38.45 68.46,81.56 98.75,129.33 22.14,33.79 28.26,51.85 18.35,54.18 -9.9,2.33 -30,-1.74 -60.3,-12.23zm-613.46 -667.65c-3.5,-10.49 -9.32,-27.09 -17.48,-49.81 -8.16,-22.72 -17.48,-48.06 -27.97,-76.03 -10.48,-27.96 -20.68,-57.09 -30.58,-87.39 -9.91,-30.29 -18.35,-58.84 -25.34,-85.64 -15.15,54.77 -35.25,106.62 -60.3,155.55 -25.05,48.94 -49.23,98.46 -72.53,148.56 40.78,0 80.1,-0.29 117.97,-0.87 37.87,-0.58 76.61,-2.04 116.23,-4.37zm1305.58 -180.02c-40.79,0 -74.28,-13.69 -100.5,-41.07 -26.22,-27.38 -45.73,-59.72 -58.55,-97 -26.8,12.81 -52.73,27.67 -77.78,44.57 -25.05,16.89 -50.39,34.08 -76.02,51.55 -19.81,12.82 -28.84,27.39 -27.1,43.7 1.75,16.31 10.78,30.88 27.1,43.69 22.13,17.48 50.97,31.17 86.51,41.08 35.54,9.9 73.11,18.06 112.73,24.46 39.62,6.41 79.23,12.82 118.85,19.23 39.62,6.41 75.44,14.56 107.49,24.47 32.04,9.9 58.26,23.59 78.65,41.07 20.39,17.48 30.58,40.2 30.58,68.16 0,36.13 -12.52,71.95 -37.57,107.49 -25.06,35.54 -57.97,69.04 -98.75,100.5 -40.78,31.46 -86.52,60.3 -137.2,86.51 -50.69,26.22 -101.37,48.94 -152.06,68.17 -50.68,19.22 -99.04,34.08 -145.06,44.56 -46.03,10.49 -84.19,15.73 -114.48,15.73 -18.65,0 -41.95,-3.78 -69.91,-11.36 -27.97,-7.57 -56.22,-18.06 -84.77,-31.46 -28.55,-13.4 -54.18,-29.42 -76.9,-48.06 -22.72,-18.64 -38.16,-38.45 -46.32,-59.42 -4.66,-12.82 -5.82,-21.27 -3.49,-25.35 2.33,-4.07 8.15,-10.19 17.47,-18.35 15.15,-11.65 36.71,-24.18 64.67,-37.57 27.97,-13.4 57.68,-26.22 89.14,-38.46 31.46,-12.23 61.75,-23.3 90.88,-33.2 29.13,-9.91 53.6,-17.19 73.41,-21.85 16.31,-2.33 26.21,-1.46 29.71,2.62 3.5,4.08 -1.75,10.78 -15.73,20.1 -8.16,5.83 -18.06,13.4 -29.71,22.72 -11.65,9.32 -21.85,19.23 -30.59,29.71 -8.74,10.49 -14.27,21.27 -16.6,32.34 -2.33,11.07 2.33,21.26 13.98,30.58 24.47,19.81 50.98,32.92 79.52,39.33 28.55,6.41 59.14,9.61 91.76,9.61 19.81,0 43.4,-2.33 70.79,-6.99 27.38,-4.66 53.3,-12.53 77.77,-23.59 24.47,-11.07 45.44,-25.35 62.92,-42.83 17.48,-17.47 26.22,-39.03 26.22,-64.66 0,-39.62 -13.69,-69.33 -41.07,-89.14 -27.39,-19.81 -61.76,-34.37 -103.12,-43.69 -41.37,-9.32 -86.23,-16.61 -134.58,-21.85 -48.36,-5.24 -93.22,-13.11 -134.58,-23.6 -41.36,-10.48 -75.74,-25.92 -103.12,-46.31 -27.38,-20.39 -41.07,-51.56 -41.07,-93.51 0,-15.14 8.16,-32.33 24.47,-51.56 16.31,-19.22 36.99,-39.32 62.04,-60.29 25.06,-20.98 53.6,-42.53 85.65,-64.67 32.04,-22.14 63.79,-43.4 95.25,-63.8 31.46,-20.39 61.17,-39.03 89.13,-55.92 27.97,-16.9 50.69,-31.76 68.17,-44.57 12.81,-9.32 27.09,-16.31 42.82,-20.98 15.73,-4.66 31.75,-4.07 48.06,1.75 29.13,10.49 57.97,22.14 86.52,34.96 28.54,12.81 59.13,19.22 91.75,19.22 23.31,0 46.03,-5.82 68.17,-17.47 22.14,-11.66 44.86,-20.4 68.16,-26.22 18.64,-5.83 28.26,-4.95 28.84,2.62 0.58,7.57 -0.88,18.93 -4.37,34.08 -3.5,16.31 -9.32,34.96 -17.48,55.93 -8.15,20.97 -16.89,40.78 -26.21,59.43 -18.65,36.12 -47.19,62.62 -85.65,79.52 -38.45,16.89 -78.06,25.34 -118.84,25.34zm1438.41 246.44c-30.3,19.8 -56.51,34.08 -78.65,42.82 -22.14,8.74 -51.85,10.78 -89.14,6.11 -19.8,57.1 -37.87,109.24 -54.18,156.43 -16.31,47.19 -33.79,89.43 -52.43,126.71 -18.64,37.29 -39.91,70.21 -63.79,98.75 -23.89,28.55 -52.73,52.14 -86.52,70.79 -31.46,17.47 -68.74,31.17 -111.86,41.07 -43.11,9.9 -94.38,16.02 -153.8,18.35 -22.14,1.17 -39.62,1.46 -52.43,0.87 -12.82,-0.58 -19.81,-2.62 -20.98,-6.11 -1.16,-3.5 4.08,-9.32 15.73,-17.48 11.66,-8.16 30.88,-19.23 57.68,-33.21 52.43,-26.8 101.37,-61.75 146.81,-104.86 45.44,-43.12 79.23,-92.64 101.37,-148.56 10.49,-25.64 20.1,-54.77 28.84,-87.39 8.74,-32.63 17.77,-71.08 27.09,-115.36 -61.75,0 -121.76,0.3 -180.02,0.88 -58.26,0.58 -117.68,2.04 -178.27,4.37 -8.16,31.46 -13.98,64.08 -17.48,97.87 -3.49,33.79 -12.82,65.84 -27.96,96.13 -12.82,25.63 -33.21,46.32 -61.18,62.05 -27.96,15.73 -53.59,31.75 -76.9,48.06 -38.45,26.8 -76.32,53.31 -113.6,79.52 -37.29,26.22 -75.16,52.14 -113.61,77.78 -20.97,13.98 -30.58,17.48 -28.84,10.49 1.75,-7 7.87,-22.14 18.36,-45.45 32.62,-69.91 65.25,-139.24 97.87,-207.98 32.63,-68.75 60.59,-139.82 83.89,-213.23 -34.95,0 -60.88,-3.79 -77.77,-11.36 -16.9,-7.57 -24.76,-16.31 -23.6,-26.22 1.17,-9.9 11.95,-19.51 32.34,-28.83 20.39,-9.33 50.39,-15.15 90.01,-17.48 10.48,-40.78 18.64,-81.86 24.47,-123.22 5.82,-41.36 15.73,-82.44 29.71,-123.22 -24.47,-2.33 -46.03,-10.48 -64.67,-24.47 -18.64,-13.98 -32.33,-31.16 -41.07,-51.56 -8.74,-20.39 -11.94,-41.65 -9.61,-63.79 2.33,-22.14 12.23,-43.11 29.71,-62.92 4.66,20.97 17.48,34.96 38.45,41.95 20.97,6.99 44.57,10.48 70.78,10.48 26.22,0 52.44,-1.74 78.65,-5.24 26.22,-3.49 46.32,-5.24 60.3,-5.24 51.27,0 76.9,23.88 76.9,71.66 0,54.76 -6.7,108.36 -20.1,160.79 -13.4,52.43 -26.5,104.87 -39.32,157.3 61.75,0 122.34,-0.29 181.77,-0.87 59.42,-0.59 120.01,-3.79 181.77,-9.62l36.7 -207.98c-23.31,-2.33 -43.99,-10.2 -62.05,-23.6 -18.06,-13.4 -31.46,-30 -40.2,-49.81 -8.74,-19.81 -12.23,-41.07 -10.48,-63.79 1.74,-22.72 11.36,-44.57 28.84,-65.54 6.99,20.97 19.8,34.95 38.45,41.94 18.64,7 39.32,10.78 62.04,11.36 22.72,0.59 45.74,-0.87 69.04,-4.36 23.3,-3.5 43.11,-5.25 59.42,-5.25 29.13,0 52.44,3.5 69.91,10.49 17.48,6.99 26.22,26.8 26.22,59.42 0,51.27 -6.41,101.37 -19.22,150.31 -12.82,48.94 -24.47,97.88 -34.96,146.81 19.81,0 39.91,0.59 60.3,1.75 20.39,1.17 40.49,2.91 60.3,5.24 32.62,5.83 48.93,11.37 48.93,16.61 0,5.24 -9.32,14.85 -27.96,28.84zm1303.83 601.23c-68.74,-24.47 -133.12,-55.93 -193.12,-94.38 -60.01,-38.45 -115.07,-82.44 -165.17,-131.96 -50.1,-49.52 -94.38,-104.28 -132.83,-164.29 -38.45,-60 -69.91,-123.8 -94.38,-191.38l-305.86 0c-11.65,27.97 -26.8,63.8 -45.44,107.49 -18.64,43.69 -39.62,87.1 -62.92,130.21 -23.3,43.11 -49.23,81.56 -77.78,115.35 -28.54,33.79 -58.55,54.77 -90.01,62.92 -16.31,-2.33 -32.04,-4.08 -47.19,-5.24 -15.14,-1.17 -30.87,-1.75 -47.19,-1.75 -23.3,0 -46.02,2.33 -68.16,6.99 -22.14,4.66 -44.86,9.32 -68.16,13.98 -26.8,4.66 -39.33,4.37 -37.58,-0.87 1.75,-5.24 11.36,-17.77 28.84,-37.58 31.46,-33.79 64.08,-66.12 97.87,-97 33.79,-30.88 67.58,-62.04 101.37,-93.5 33.8,-31.46 66.42,-64.09 97.88,-97.88 31.46,-33.79 60.01,-69.91 85.64,-108.36 -11.65,0 -31.46,-2.04 -59.42,-6.12 -27.97,-4.08 -52.44,-10.78 -73.41,-20.1 -25.63,-11.65 -35.54,-20.1 -29.71,-25.34 5.82,-5.24 18.64,-10.2 38.45,-14.86 27.96,-5.82 58.84,-8.74 92.63,-8.74 33.79,0 62.34,0 85.64,0 12.82,-16.31 29.42,-44.56 49.81,-84.76 20.39,-40.2 40.2,-83.6 59.43,-130.21 19.22,-46.61 35.83,-91.18 49.81,-133.71 13.98,-42.52 20.97,-73.69 20.97,-93.5 0,-25.63 -10.48,-44.86 -31.46,-57.68 -20.97,-12.81 -43.11,-22.72 -66.41,-29.71 -23.31,-8.16 -30.59,-15.73 -21.85,-22.72 8.74,-6.99 21.85,-13.4 39.32,-19.23 51.27,-13.98 101.67,-12.81 151.19,3.5 49.52,16.31 92.34,43.11 128.46,80.4 27.96,30.29 51.56,65.25 70.78,104.86 19.23,39.62 36.71,80.98 52.44,124.09 15.73,43.12 30.87,86.23 45.44,129.34 14.56,43.11 31.17,82.73 49.81,118.85 40.78,2.33 81.27,2.33 121.47,0 40.2,-2.33 80.69,-4.66 121.47,-6.99 37.28,-2.33 63.21,-0.59 77.77,5.24 14.57,5.83 20.69,13.69 18.36,23.6 -2.33,9.9 -11.66,20.39 -27.97,31.46 -16.31,11.06 -35.54,20.68 -57.67,28.83 -32.63,11.66 -66.13,16.02 -100.5,13.11 -34.37,-2.91 -73.12,-4.37 -116.23,-4.37 19.81,64.09 44.86,119.14 75.16,165.17 30.29,46.02 62.92,88.84 97.87,128.46 34.96,39.61 70.2,78.65 105.74,117.1 35.54,38.45 68.46,81.56 98.75,129.33 22.14,33.79 28.26,51.85 18.35,54.18 -9.9,2.33 -30,-1.74 -60.3,-12.23zm-613.46 -667.65c-3.5,-10.49 -9.32,-27.09 -17.48,-49.81 -8.16,-22.72 -17.48,-48.06 -27.97,-76.03 -10.48,-27.96 -20.68,-57.09 -30.58,-87.39 -9.91,-30.29 -18.35,-58.84 -25.34,-85.64 -15.15,54.77 -35.25,106.62 -60.3,155.55 -25.05,48.94 -49.23,98.46 -72.53,148.56 40.78,0 80.1,-0.29 117.97,-0.87 37.87,-0.58 76.61,-2.04 116.23,-4.37zm-3537.46 1470.51l39.6 92.88c50.05,23.36 61.51,-0.89 95.99,43.58 40.93,52.77 7.82,65.25 123.02,65.25 0,68.34 -13.32,89.17 108.99,89.17 5.93,71.29 14.86,77.94 76.3,92.15 110.97,25.69 36.47,36.56 112.54,65.82 144.47,55.56 116.85,97.98 237.23,69.93l58.56 96.29c79.81,-52.53 -24.14,-288.07 -105.43,-366.49 -80.97,-78.12 -174.21,-163.6 -258.37,-237.07 -89.59,-78.2 -171.36,-161.21 -259.36,-236.06 -81.45,-69.28 -40.53,-60.99 -188.26,-59.45 -85.82,0.89 -171.97,0.19 -257.81,0.19l217 283.81zm1001.75 607.96l72.72 -86.96c117.03,25.83 89.41,-16.59 233.87,-72.15 76.54,-29.44 2.31,-40.11 104.25,-64.21 68.44,-16.18 78.19,-16.85 84.59,-93.76 122.31,0 109,-20.83 109,-89.17 103.01,0 81.49,-5.09 119.05,-59.3 38.31,-55.3 39.71,-21.28 98.94,-49.7l18.8 -109.16 21.81 16.45 220.23 -281.3c-501.25,-6.9 -318.35,-38.56 -703.31,288.26 -130.62,110.9 -481.73,388.88 -379.95,601zm-148.63 -326.98c0,-310.3 -45.92,-248.65 -279.35,-443.98 -168.22,-140.77 -67.71,-58.76 -71.7,-239.24 -2.16,-97.28 -104.84,-159.02 -203.83,-159.02l-574.7 0c-87.49,0 130.26,204.4 229.79,216.11 270.26,31.8 215.03,-43.35 368.15,137.18 69.75,82.23 448.74,433.43 531.64,488.95zm158.54 0c86.14,-57.68 453.22,-398.83 527.09,-483.59 151.25,-173.58 86.17,-117.21 363.65,-141.69 110.31,-9.74 325.01,-216.96 238.84,-216.96l-574.69 0c-90.65,0 -197,56.28 -203.52,151.01 -12.17,176.62 101.96,101.72 -66.65,242.71 -238.35,199.31 -284.72,142.81 -284.72,448.52zm-3250.02 -802.6c0,263.1 982.41,168.45 1278.21,168.45 -2.64,-3.94 -174.93,-177.08 -183.39,-183.24 -62.78,-45.7 -261.25,-14.93 -351.68,-14.93 -247.72,0 -495.43,0 -743.14,0l0 29.72zm5063.3 168.45c295.8,0 1278.21,94.65 1278.21,-168.45l0 -29.72c-244.41,0 -488.82,0 -733.24,0 -83.05,0 -303.68,-19.9 -355.73,10.88 -2.39,1.41 -185.12,181.13 -189.24,187.29zm-178.35 217.98c227.82,27.04 589.39,10.29 832.32,9.92 189.85,0 511.77,2.3 525.16,-158.54l-1129.63 -0.04c-149.59,-0.53 -216.64,13.84 -227.85,148.66zm-4260.71 9.92l723.33 0 108.81 -11.32 -69.41 -147.1 -1287.89 -0.12c13.38,160.84 335.31,158.54 525.16,158.54zm1030.49 396.34l0 -39.64 -10.01 7.17 -89.81 -125.54 -1188.3 -0.53c21.49,258.22 985.55,158.54 1288.12,158.54zm3032.04 -39.64l0 39.64c302.57,0 1266.63,99.68 1288.12,-158.54l-1050.42 -0.11c-271.32,-2.08 -123.24,88.45 -237.7,119.01zm103.63 -170.46c249.78,2.01 494.19,2.01 738.6,2.01 206.78,0 579.98,26.04 594.52,-148.62l-1278.21 0 -54.91 146.61zm-3244.66 2.01l-49.78 -148.53 -1277.98 -0.09c14.4,173.05 379.7,148.62 584.61,148.62 247.72,0 495.43,0 743.15,0zm2823.96 663.89c309.27,0 985.85,-3.8 1040.4,-208.09 -208.08,0 -416.16,0 -624.24,0 -91.27,0 -227.14,-16.29 -286.51,20.66 -45.84,28.53 -124.15,121.2 -129.65,187.43zm-2397.89 0c-5.31,-63.82 -78.81,-152.78 -123.72,-183.45 -61.43,-41.96 -197.13,-24.64 -292.44,-24.64 -208.08,0 -416.16,0 -624.25,0 54.56,204.29 731.13,208.09 1040.41,208.09zm2596.06 -257.63c217.99,0 435.98,0 653.97,0 202.45,0 466.04,-12.69 515.25,-148.63 -218,0 -435.99,0 -653.97,0 -210.27,0 -499.15,-44.83 -515.25,148.63zm-2794.24 0c-15.94,-191.6 -296.76,-148.63 -505.33,-148.63 -221.3,0 -442.59,0 -663.88,0 48.21,133.18 305.98,148.63 505.34,148.63 221.29,0 442.58,0 663.87,0zm2536.61 -812.51c170.18,0 388.34,8.23 538.89,-6.09 188.58,-17.94 375.18,-201.98 253.8,-201.98l-604.43 0c-9.4,0 -184.26,193.1 -188.26,208.07zm-2278.98 0c-3.72,-13.92 -180.13,-208.07 -188.26,-208.07l-604.43 0c-121.46,0 69.13,185.75 244.78,201.11 162.69,14.23 368.3,6.96 547.91,6.96zm644.06 1436.75c31.42,21.04 55.07,49.54 109,49.54 186.28,0 298.86,-535.9 211.89,-569.08 -89.37,-34.11 -125.27,189.56 -155.96,258.4 -35.79,80.3 -162.94,253.7 -164.93,261.14zm881.87 49.54c53.93,0 77.58,-28.5 109,-49.54 -4.71,-17.6 -126.05,-167.98 -165.14,-260.93 -28.51,-67.76 -68.89,-291.58 -155.69,-258.68 -87.11,33 25.51,569.15 211.83,569.15zm-1020.59 -108.99l59.45 0c101.12,0 313.88,-326.26 267.54,-525.15 -144.24,0 -158.51,169.34 -212.26,263.35 -32.17,56.28 -237.68,261.8 -114.73,261.8zm1228.67 -634.15c0,74.79 198.92,426.07 376.53,426.07 25.37,0 133.13,-64.62 25.71,-134.33 -76.95,-49.94 -90.23,-63.57 -146.55,-131.26 -25.4,-30.54 -255.69,-354.67 -255.69,-160.48zm-1565.56 426.07c177.6,0 376.52,-351.28 376.52,-426.07 0,-192.84 -225.07,123.61 -251.18,155.07 -54.97,66.28 -71.8,86.24 -144.85,132.81 -111.8,71.28 -13.57,138.19 19.51,138.19zm1268.3 -267.53c0,156.92 161.7,475.61 277.44,475.61 218.23,0 25.13,-121.13 -55.27,-261.8 -53.49,-93.57 -69.17,-263.35 -212.26,-263.35 -5.18,22.22 -9.91,22.78 -9.91,49.54zm168.45 -89.18c0,108.01 56.46,198.42 102.18,274.34 42.99,71.4 100.26,191.36 185.17,191.36 61.74,0 84.32,-22.6 109,-59.45 -45.24,-85.48 -128.88,-129.65 -183.85,-212.5 -40.27,-60.72 -100.99,-223.47 -182.77,-223.47 -22.84,0 -29.73,6.89 -29.73,29.72zm-1327.76 406.25c30.05,44.88 51.84,59.45 118.91,59.45 111.09,0 364.81,-495.42 247.71,-495.42 -80.68,0 -141.86,159.7 -178.88,217.46 -53.27,83.1 -145.27,138.26 -187.74,218.51zm1595.29 -604.42c0,109.69 76.85,163.85 156.14,250.11 45.94,49.98 136.6,166.05 220.39,166.05 35.98,0 86.01,-70.94 89.18,-109 -47.95,-12.8 -204.45,-134.47 -247.84,-168.32 -32.03,-24.97 -217.87,-256.32 -217.87,-138.84zm-1932.18 307.16c3.07,36.94 60.27,109 79.27,109 121.54,0 386.43,-319.82 386.43,-386.43 0,-167.69 -151.31,57.21 -217.86,109.11 -43.4,33.85 -199.9,155.52 -247.84,168.32zm921.5 594.52c110.96,58.71 237.81,29.81 237.81,-99.08l0 -376.53c0,-37.89 3.04,-3.61 -9.91,-29.73 -71.39,5.94 -44.16,87.67 -102.76,263.86 -59.82,179.81 -119.9,178.5 -125.14,241.48zm317.08 -475.61l0 376.53c0,128.89 126.84,157.79 237.8,99.08 -3.55,-42.65 -45.8,-77.65 -67.64,-110.71 -38.95,-58.97 -83.24,-195.02 -96.51,-270.11 -10.97,-62.11 -1.74,-119.36 -63.75,-124.52 -6.79,12.09 -9.9,10.6 -9.9,29.73zm-1486.3 -416.16c0,89.02 75.1,79.27 109,79.27 139.38,0 514.8,-317.08 366.62,-317.08 -47.35,0 -182.71,103.83 -225.87,130.84 -139.25,87.17 -249.75,59.9 -249.75,106.97zm2784.33 79.27c33.89,0 108.99,9.75 108.99,-79.27 0,-47.07 -110.49,-19.8 -249.75,-106.97 -43.16,-27.01 -178.52,-130.84 -225.86,-130.84 -148.18,0 227.24,317.08 366.62,317.08zm-287.36 -376.53c0,59.64 273.8,217.99 356.72,217.99 47.65,0 138.26,15.52 148.62,-109 -67.63,-1.5 -218.6,-37.66 -267.52,-59.46 -63.33,-28.23 -155.31,-99.07 -237.82,-99.07l0 49.54zm-2605.96 108.99c23.05,277 505.34,-42.81 505.34,-108.99l0 -49.54c-114.32,0 -246.95,152.78 -505.34,158.53zm217.99 326.99c0,110.65 30.81,99.08 99.09,99.08 51.79,0 396.34,-229.47 396.34,-336.89 0,-96.71 -202.63,106.25 -219.59,117.3 -45.37,29.54 -216.28,115.55 -275.84,120.51zm2179.89 -237.81c0,107.42 344.56,336.89 396.35,336.89 68.27,0 99.09,11.57 99.09,-99.08 -59.56,-4.96 -230.47,-90.97 -275.84,-120.51 -16.96,-11.05 -219.6,-214.01 -219.6,-117.3zm287.35 -356.71c0,142.83 263.65,208.08 336.9,208.08 56.91,0 138.72,-45.34 138.72,-89.18l0 -39.63c-331.51,0 -475.62,-150.71 -475.62,-79.27zm-2665.42 79.27l-69.35 0 0 39.63c0,43.84 81.81,89.18 138.72,89.18 117.86,0 336.89,-87.57 336.89,-198.17 0,-72.64 -107.74,6.32 -194.49,33.41 -60.3,18.84 -138.21,35.95 -211.77,35.95zm-29.72 -29.72c77.9,0 346.8,-74.55 346.8,-128.82 0,-22.83 -6.89,-29.72 -29.73,-29.72l-445.88 0c0,96.86 33.34,158.54 128.81,158.54zm2784.32 -128.82c0,51.61 263.81,128.82 336.89,128.82 101.3,0 138.73,-56.65 138.73,-158.54l-445.9 0c-22.82,0 -29.72,6.89 -29.72,29.72z"/>
 </g>
</svg>
